<svg version="1" xmlns="http://www.w3.org/2000/svg" width="933.333" height="933.333" viewBox="0 0 700.000000 700.000000"><path d="M181.9 165.4C63.6 283.7 24.8 323 23 326.7c-3.5 6.8-3.5 18.7-.1 25.3 1.7 3.1 42.5 44.6 133.7 135.8L288 619.2v-12.9-73.4l-94-94c-99.3-99.3-96.5-96.3-94.5-103.1.4-1.2 54.5-56.1 120.2-121.9L339.1 94.4l.2-42.7c.1-23.5 0-42.7-.3-42.7s-71 70.4-157.1 156.4z"/><path d="M361 9.6c0 .5-.1 19.7-.1 42.8l-.1 41.9 118.5 118.6c65.2 65.2 119 119.6 119.6 120.8 1.3 2.6 1.4 7.3.2 10.6-.7 1.8-197.1 199.4-206.8 207.9-1.9 1.8-1.9 1.2-1.8-53.5 0-30.3-.1-55.5-.3-56-.2-.4-9.3 8.2-20.3 19.2L350 481.8l-71-71c-57.7-57.8-70.8-71.3-70-72.6.5-1 32.4-33.2 70.9-71.7l70.1-70 70.5 70.5c38.8 38.8 70.5 71.3 70.5 72.2 0 .9-17.8 19.4-39.5 41.1L412 419.8v35.7c0 19.7.1 35.9.3 36.1.1.2 33.9-33.3 75-74.4 53.7-53.7 74.9-75.5 75.2-77.5.4-2.2-.3-3.6-4.2-7.6-2.7-2.7-29.1-29.5-58.8-59.6-29.7-30.1-64.3-65.1-76.8-77.8-12.6-12.8-34.1-34.5-47.8-48.3l-25-25.2-8.2 8c-4.5 4.4-22.6 22-40.1 39.1-17.6 17.2-35.8 35-40.6 39.7-4.8 4.7-22.6 22-39.5 38.5s-34.8 34-39.9 38.9c-31 30.1-50.5 49.5-51.5 51.4-2.3 4.2-8.8-2.6 110.9 115.2 12.1 11.8 32.4 31.8 45.2 44.5l23.3 23v60.6l.1 60.6 20.2 20.3 20.2 20.2 162.4-162.3C625 406.3 675.4 355.1 677.1 352c3.3-6.3 3.4-18.5.1-25.1-1.6-3.4-41.8-44.1-158.7-161-86.1-86-156.8-156.6-157-156.8-.3-.2-.5 0-.5.5z"/></svg>