<?xml version="1.0" standalone="no"?>
<!DOCTYPE svg PUBLIC "-//W3C//DTD SVG 20010904//EN"
 "http://www.w3.org/TR/2001/REC-SVG-20010904/DTD/svg10.dtd">
<svg version="1.0" xmlns="http://www.w3.org/2000/svg"
 width="512.000000pt" height="512.000000pt" viewBox="0 0 512.000000 512.000000"
 preserveAspectRatio="xMidYMid meet">
<metadata>
Created by potrace 1.14, written by Peter Selinger 2001-2017
</metadata>
<g transform="translate(0.000000,512.000000) scale(0.100000,-0.100000)"
fill="#000000" stroke="none">
<path d="M1517 3522 c-564 -564 -967 -975 -967 -985 0 -11 342 -361 819 -838
451 -450 821 -819 823 -819 2 0 3 115 3 255 l0 255 -569 569 c-313 313 -567
574 -565 580 2 6 327 335 722 730 l717 719 0 251 c0 138 -3 251 -8 251 -4 0
-442 -435 -975 -968z"/>
<path d="M2624 4237 l1 -252 724 -724 723 -723 -43 -45 c-24 -25 -309 -310
-634 -635 l-590 -589 -3 332 -2 331 -120 -119 -119 -120 -420 420 c-232 230
-421 421 -421 423 0 3 189 194 420 425 l420 420 421 -421 c359 -359 419 -423
408 -436 -7 -8 -113 -115 -236 -238 -159 -160 -223 -230 -224 -247 0 -13 -2
-110 -2 -216 -2 -166 0 -190 13 -180 34 28 890 888 890 896 0 4 -10 16 -22 27
-17 15 -1133 1144 -1226 1240 -7 8 -17 14 -21 14 -8 0 -41 -31 -537 -515 -163
-159 -349 -341 -413 -403 -64 -63 -174 -171 -245 -240 l-128 -126 303 -299
c167 -165 411 -405 542 -535 l237 -236 0 -357 0 -357 116 -116 c64 -64 120
-116 125 -116 13 0 1998 1991 2004 2011 5 14 -206 230 -964 989 -534 533 -973
970 -975 970 -2 0 -3 -114 -2 -253z"/>
</g>
</svg>
