<svg width="412" height="416" viewBox="0 0 412 416" fill="none" xmlns="http://www.w3.org/2000/svg">
    <g stroke="url(#esp-gradient)" stroke-width="4">
        <circle cx="45.0786" cy="131.885" r="17.188" />
        <circle cx="155.775" cy="131.885" r="17.188" />
        <circle cx="71.8882" cy="83.4548" r="17.188" />
        <circle cx="71.8882" cy="21.188" r="17.188" />
        <circle cx="79.6714" cy="214.907" r="17.188" />
        <circle cx="182.584" cy="257.283" r="17.188" />
        <circle cx="294.146" cy="257.283" r="17.188" />
        <circle cx="294.146" cy="394.789" r="17.188" />
        <circle cx="334.792" cy="354.142" r="17.188" />
        <circle cx="334.792" cy="297.929" r="17.188" />
        <circle cx="334.792" cy="201.07" r="17.188" />
        <circle cx="390.141" cy="187.233" r="17.188" />
        <circle cx="390.141" cy="118.912" r="17.188" />
        <circle cx="349.494" cy="83.4548" r="17.188" />
        <circle cx="286.362" cy="22.0529" r="17.188" />
        <circle cx="224.96" cy="22.0529" r="17.188" />
        <circle cx="161.829" cy="22.0529" r="17.188" />
        <circle cx="135.02" cy="83.4548" r="17.188" />
        <circle cx="203.34" cy="174.261" r="17.188" />
        <circle cx="245.716" cy="214.907" r="17.188" />
        <circle cx="258.688" cy="160.423" r="17.188" />
        <path d="M61.0779 33.7278L4.29559 90.08C4.10641 90.2677 4 90.5232 4 90.7898V153.104C4 153.361 4.09922 153.609 4.27701 153.795L22.2981 172.654C22.4868 172.852 22.748 172.963 23.0211 172.963H98.2891C98.5508 172.963 98.8021 173.066 98.989 173.249L141.647 215.053C141.834 215.237 142.085 215.339 142.347 215.339H229.285M83.5631 72.6446L112.684 42.667C112.865 42.4804 112.967 42.2305 112.967 41.9703V23.4852C112.967 22.9329 113.415 22.4852 113.967 22.4852H145.397M151.451 83.8872H176.103C176.376 83.8872 176.638 83.9992 176.826 84.1972L202.632 111.272C202.809 111.458 202.908 111.705 202.908 111.962V157.829M61.0779 132.749H139.776M259.121 144.857V119.328C259.121 119.062 259.015 118.807 258.826 118.619L173.936 34.1602M237.5 35.4575L307.253 104.349C307.443 104.537 307.551 104.793 307.551 105.061V172.981C307.551 173.247 307.656 173.501 307.843 173.689L323.55 189.395M90.4816 227.879L121.327 256.583C121.512 256.755 121.756 256.85 122.008 256.85H166.153M199.881 256.85H277.282M294.146 275.012V378.79M334.792 338.576V314.793M334.792 280.633V271.971C334.792 271.703 334.9 271.446 335.091 271.259L390.274 216.93C390.465 216.742 390.573 216.486 390.573 216.218V204.961M378.465 175.125L349.798 147.313C349.604 147.125 349.494 146.866 349.494 146.596V100.751M303.226 22.4852H341.304C341.565 22.4852 341.815 22.5869 342.002 22.7687L390.27 69.7557C390.464 69.9439 390.573 70.2024 390.573 70.4722V102.913" />
    </g>
    <defs>
        <linearGradient id="esp-gradient" x1="0" y1="0" x2="1" y2="0" gradientUnits="userSpaceOnUse" gradientTransform="matrix(0,412,793.807,1537,79.5613,124.359)">
            <stop offset="0" style="stop-color:#9b64ed"/>
            <stop offset="1" style="stop-color:#8a70e6"/>
        </linearGradient>
    </defs>
</svg>
