<?xml version="1.0" encoding="UTF-8" standalone="no"?>
<!DOCTYPE svg PUBLIC "-//W3C//DTD SVG 1.1//EN" "http://www.w3.org/Graphics/SVG/1.1/DTD/svg11.dtd">
<svg width="100%" height="100%" viewBox="0 0 1920 1080" version="1.1" xmlns="http://www.w3.org/2000/svg" xmlns:xlink="http://www.w3.org/1999/xlink" xml:space="preserve" xmlns:serif="http://www.serif.com/" style="fill-rule:evenodd;clip-rule:evenodd;stroke-linecap:round;stroke-linejoin:round;stroke-miterlimit:1.5;">
    <path d="M59.975,1080L59.975,0M119.975,1080L119.975,0M179.975,1080L179.975,0M239.975,1080L239.975,0M299.975,1080L299.975,0M359.975,1080L359.975,0M419.975,1080L419.975,0M479.975,1080L479.975,0M539.975,1080L539.975,0M599.975,1080L599.975,0M659.975,1080L659.975,0M719.975,1080L719.975,0M779.975,1080L779.975,0M839.975,1080L839.975,0M899.975,1080L899.975,0M959.975,1080L959.975,0M1019.98,1080L1019.98,0M1079.97,1080L1079.97,0M1139.98,1080L1139.98,0M1199.98,1080L1199.98,0M1922.56,1015.47L0,1015.47M1922.56,955.335L0,955.335M1922.56,895.2L0,895.2M1922.56,835.065L0,835.065M1922.56,774.93L0,774.93M1922.56,714.795L0,714.795M1922.56,654.66L0,654.66M1922.56,594.526L0,594.526M1922.56,534.391L0,534.391M1922.56,474.256L0,474.256M1922.56,414.121L0,414.121M1922.56,353.986L0,353.986M1922.56,293.851L0,293.851M1922.56,233.717L0,233.717M1922.56,173.582L0,173.582M1922.56,113.447L0,113.447M1922.56,53.312L0,53.312M1259.98,1080L1259.98,0M1319.98,1080L1319.98,0M1379.98,1080L1379.98,0M1439.98,1080L1439.98,0M1499.98,1080L1499.98,0M1559.98,1080L1559.98,0M1619.98,1080L1619.98,0M1679.98,1080L1679.98,0M1739.98,1080L1739.98,0M1799.98,1080L1799.98,0M1859.98,1080L1859.98,0M0,1073.76L1920,1073.76" style="fill:none;stroke:url(#_Linear1);stroke-width:1px;"/>
    <defs>
        <linearGradient id="_Linear1" x1="0" y1="0" x2="1" y2="0" gradientUnits="userSpaceOnUse" gradientTransform="matrix(1922.56,0,0,1080,3.69482e-13,540)"><stop offset="0" style="stop-color:white;stop-opacity:0.02"/><stop offset="0.5" style="stop-color:white;stop-opacity:0"/><stop offset="1" style="stop-color:rgb(197,194,223);stop-opacity:0.08"/></linearGradient>
    </defs>
</svg>
